<?xml version="1.0" encoding="UTF-8"?>
<!-- Created with Inkscape (http://www.inkscape.org/) -->
<svg width="300" height="120" version="1.1" viewBox="0 0 300 120" xmlns="http://www.w3.org/2000/svg">
 <g stroke-linecap="round" stroke-linejoin="round">
  <path d="m20 24a4 4 0 00-4 4v24a4 4 0 004 4 4 4 0 004-4v-24a4 4 0 00-4-4z" fill="#3584e4" stop-color="#000000"/>
  <path d="m8 52h92v60h-92z" fill="#f6d32d" stop-color="#000000" stroke-dashoffset=".2" stroke-miterlimit="3.2"/>
  <path d="m8 48a4.0004 4.0004 0 00-4 4v60a4.0004 4.0004 0 004 4h92a4.0004 4.0004 0 004-4v-60a4.0004 4.0004 0 00-4-4h-92zm4 8h84v52h-84v-52zm16 4a4.0004 4.0004 0 00-2.8281 1.1719l-8 8a4.0004 4.0004 0 00-1.1719 2.8281v20a4.0004 4.0004 0 001.1719 2.8281l8 8a4.0004 4.0004 0 002.8281 1.1719h20a4.0004 4.0004 0 002.8281-1.1719l8-8a4.0004 4.0004 0 001.1719-2.8281v-20a4.0004 4.0004 0 00-1.1719-2.8281l-8-8a4.0004 4.0004 0 00-2.8281-1.1719h-20zm40 0a4.0004 4.0004 0 00-4 4v12a4.0004 4.0004 0 004 4h20a4.0004 4.0004 0 004-4v-12a4.0004 4.0004 0 00-4-4h-20zm-38.344 8h16.688l5.6562 5.6562v16.688l-5.6562 5.6562h-16.688l-5.6562-5.6562v-16.688l5.6562-5.6562zm42.344 0h12v4h-12v-4zm8 16a4.0004 4.0004 0 00-2.8281 1.1719l-4 4a4.0004 4.0004 0 000 5.6562l4 4a4.0004 4.0004 0 005.6562 0l4-4a4.0004 4.0004 0 000-5.6562l-4-4a4.0004 4.0004 0 00-2.8281-1.1719z" fill="#3584e4" stop-color="#000000" stroke-dashoffset=".2" stroke-miterlimit="3.2"/>
  <path d="m20 16a4.0004 4.0004 0 00-2.8281 1.1719l-4 4a4.0004 4.0004 0 000 5.6562l4 4a4.0004 4.0004 0 005.6562 0l4-4a4.0004 4.0004 0 000-5.6562l-4-4a4.0004 4.0004 0 00-2.8281-1.1719z" fill="#f6d32d" stop-color="#000000"/>
  <path d="m176 68a4 4 0 00-4 4v8h-8a4.0004 4.0004 0 00-4 4v24a4.0004 4.0004 0 004 4h12a4.0004 4.0004 0 004-4v-24-12a4 4 0 00-4-4zm-56 12a4.0004 4.0004 0 00-4 4v24a4 4 0 004 4 4 4 0 004-4v-20h4a4 4 0 004-4 4 4 0 00-4-4h-8zm20 0a4 4 0 00-4 4 4 4 0 004 4h8v4h-8a4.0004 4.0004 0 00-4 4v12a4.0004 4.0004 0 004 4h12a4.0004 4.0004 0 004-4v-12-12a4.0004 4.0004 0 00-4-4h-12zm48 0a4 4 0 00-4 4v24a4 4 0 004 4 4 4 0 004-4v-24a4 4 0 00-4-4zm12 0a4.0004 4.0004 0 00-4 4v24a4.0004 4.0004 0 004 4h12a4.0004 4.0004 0 004-4v-24a4.0004 4.0004 0 00-4-4h-12zm-32 8h4v16h-4v-16zm36 0h4v16h-4v-16zm-60 12h4v4h-4v-4z" fill="#f6d32d" stop-color="#000000"/>
  <path d="m188 68a4 4 0 00-4 4 4 4 0 004 4 4 4 0 004-4 4 4 0 00-4-4z" fill="#3584e4" stop-color="#000000"/>
  <path d="m120 20a4 4 0 00-4 4v12 24a4.0004 4.0004 0 004 4h8a4 4 0 004-4 4 4 0 00-4-4h-4v-16h4a4 4 0 004-4 4 4 0 00-4-4h-4v-8a4 4 0 00-4-4zm44 0a4 4 0 00-4 4v36a4 4 0 004 4 4 4 0 004-4v-8h4v8a4 4 0 004 4 4 4 0 004-4v-12a4.0004 4.0004 0 00-4-4h-2.3438l5.1719-5.1719a4 4 0 000-5.6562 4 4 0 00-2.8281-1.1719 4 4 0 00-2.8281 1.1719l-5.1719 5.1719v-14.344a4 4 0 00-4-4zm-24 12a4.0004 4.0004 0 00-4 4v24a4.0004 4.0004 0 004 4h12a4.0004 4.0004 0 004-4v-24a4.0004 4.0004 0 00-4-4h-12zm48 0a4 4 0 00-4 4v24a4 4 0 004 4 4 4 0 004-4v-24a4 4 0 00-4-4zm20 0a4.0004 4.0004 0 00-4 4v24 12a4 4 0 004 4 4 4 0 004-4v-8h8a4.0004 4.0004 0 004-4v-24a4.0004 4.0004 0 00-4-4h-12zm24 0a4.0004 4.0004 0 00-4 4v24a4.0004 4.0004 0 004 4h12a4.0004 4.0004 0 004-4v-24a4.0004 4.0004 0 00-4-4h-12zm24 0a4.0004 4.0004 0 00-4 4v24a4 4 0 004 4 4 4 0 004-4v-20h4v20a4 4 0 004 4 4 4 0 004-4v-24a4.0004 4.0004 0 00-4-4h-12zm24 0a4 4 0 00-4 4 4 4 0 004 4h8v4h-8a4.0004 4.0004 0 00-4 4v12a4.0004 4.0004 0 004 4h12a4.0004 4.0004 0 004-4v-12-12a4.0004 4.0004 0 00-4-4h-12zm-136 8h4v16h-4v-16zm68 0h4v16h-4v-16zm24 0h4v16h-4v-16zm48 12h4v4h-4v-4z" fill="#3584e4" stop-color="#000000"/>
  <path d="m188 20a4 4 0 00-4 4 4 4 0 004 4 4 4 0 004-4 4 4 0 00-4-4z" fill="#f6d32d" stop-color="#000000"/>
  <path d="m53.266 12.205a4.0004 4.0004 0 00-5.2656 3.7949v12a4 4 0 00-4 4 4 4 0 004 4h4a4.0004 4.0004 0 004-4v-10.451l4 1.334v9.1172a4 4 0 00-4 4 4 4 0 004 4h4a4.0004 4.0004 0 004-4v-16a4.0004 4.0004 0 00-2.7344-3.7949z" fill="#3584e4" stop-color="#000000"/>
  <path d="m81.266 4.2051a4.0004 4.0004 0 00-5.2656 3.7949v12a4 4 0 00-4 4 4 4 0 004 4h4a4.0004 4.0004 0 004-4v-10.451l4 1.334v9.1172a4 4 0 00-4 4 4 4 0 004 4h4a4.0004 4.0004 0 004-4v-16a4.0004 4.0004 0 00-2.7344-3.7949z" fill="#f6d32d" stop-color="#000000"/>
 </g>
</svg>
