<?xml version="1.0" encoding="UTF-8"?>
<!-- Created with Inkscape (http://www.inkscape.org/) -->
<svg width="600" height="400" version="1.1" viewBox="0 0 600 400" xmlns="http://www.w3.org/2000/svg">
 <rect width="600" height="400" ry="40" fill="#fff" stroke="#3584e4" stroke-linecap="round" stroke-linejoin="round"/>
 <g transform="translate(-2,-16)" stroke-linecap="round" stroke-linejoin="round" stroke-width="1.5">
  <path d="m111 152a6 6 0 00-6 6v36a6 6 0 006 6 6 6 0 006-6v-36a6 6 0 00-6-6z" fill="#3584e4" stop-color="#000000"/>
  <path d="m93 194h138v90h-138z" fill="#f6d32d" stop-color="#000000" stroke-dashoffset=".2" stroke-miterlimit="3.2"/>
  <path d="m93 188a6.0006 6.0006 0 00-6 6v90a6.0006 6.0006 0 006 6h138a6.0006 6.0006 0 006-6v-90a6.0006 6.0006 0 00-6-6zm6 12h126v78h-126zm24 6a6.0006 6.0006 0 00-4.2422 1.7578l-12 12a6.0006 6.0006 0 00-1.7578 4.2422v30a6.0006 6.0006 0 001.7578 4.2422l12 12a6.0006 6.0006 0 004.2422 1.7578h30a6.0006 6.0006 0 004.2422-1.7578l12-12a6.0006 6.0006 0 001.7578-4.2422v-30a6.0006 6.0006 0 00-1.7578-4.2422l-12-12a6.0006 6.0006 0 00-4.2422-1.7578zm60 0a6.0006 6.0006 0 00-6 6v18a6.0006 6.0006 0 006 6h30a6.0006 6.0006 0 006-6v-18a6.0006 6.0006 0 00-6-6zm-57.515 12h25.031l8.4844 8.4844v25.031l-8.4844 8.4844h-25.031l-8.4844-8.4844v-25.031zm63.515 0h18v6h-18zm12 24a6.0006 6.0006 0 00-4.2422 1.7578l-6 6a6.0006 6.0006 0 000 8.4844l6 6a6.0006 6.0006 0 008.4844 0l6-6a6.0006 6.0006 0 000-8.4844l-6-6a6.0006 6.0006 0 00-4.2422-1.7578z" fill="#3584e4" stop-color="#000000" stroke-dashoffset=".2" stroke-miterlimit="3.2"/>
  <path d="m111 140a6.0006 6.0006 0 00-4.2422 1.7578l-6 6a6.0006 6.0006 0 000 8.4844l6 6a6.0006 6.0006 0 008.4844 0l6-6a6.0006 6.0006 0 000-8.4844l-6-6a6.0006 6.0006 0 00-4.2422-1.7578z" fill="#f6d32d" stop-color="#000000"/>
  <path d="m345 218a6 6 0 00-6 6v12h-12a6.0006 6.0006 0 00-6 6v36a6.0006 6.0006 0 006 6h18a6.0006 6.0006 0 006-6v-54a6 6 0 00-6-6zm-84 18a6.0006 6.0006 0 00-6 6v36a6 6 0 006 6 6 6 0 006-6v-30h6a6 6 0 006-6 6 6 0 00-6-6zm30 0a6 6 0 00-6 6 6 6 0 006 6h12v6h-12a6.0006 6.0006 0 00-6 6v18a6.0006 6.0006 0 006 6h18a6.0006 6.0006 0 006-6v-36a6.0006 6.0006 0 00-6-6zm72 0a6 6 0 00-6 6v36a6 6 0 006 6 6 6 0 006-6v-36a6 6 0 00-6-6zm18 0a6.0006 6.0006 0 00-6 6v36a6.0006 6.0006 0 006 6h18a6.0006 6.0006 0 006-6v-36a6.0006 6.0006 0 00-6-6zm-48 12h6v24h-6zm54 0h6v24h-6zm-90 18h6v6h-6z" fill="#f6d32d" stop-color="#000000"/>
  <path d="m363 218a6 6 0 00-6 6 6 6 0 006 6 6 6 0 006-6 6 6 0 00-6-6z" fill="#3584e4" stop-color="#000000"/>
  <path d="m261 146a6 6 0 00-6 6v54a6.0006 6.0006 0 006 6h12a6 6 0 006-6 6 6 0 00-6-6h-6v-24h6a6 6 0 006-6 6 6 0 00-6-6h-6v-12a6 6 0 00-6-6zm66 0a6 6 0 00-6 6v54a6 6 0 006 6 6 6 0 006-6v-12h6v12a6 6 0 006 6 6 6 0 006-6v-18a6.0006 6.0006 0 00-6-6h-3.5156l7.7578-7.7578a6 6 0 000-8.4844 6 6 0 00-4.2422-1.7578 6 6 0 00-4.2422 1.7578l-7.7578 7.7578v-21.516a6 6 0 00-6-6zm-36 18a6.0006 6.0006 0 00-6 6v36a6.0006 6.0006 0 006 6h18a6.0006 6.0006 0 006-6v-36a6.0006 6.0006 0 00-6-6zm72 0a6 6 0 00-6 6v36a6 6 0 006 6 6 6 0 006-6v-36a6 6 0 00-6-6zm30 0a6.0006 6.0006 0 00-6 6v54a6 6 0 006 6 6 6 0 006-6v-12h12a6.0006 6.0006 0 006-6v-36a6.0006 6.0006 0 00-6-6zm36 0a6.0006 6.0006 0 00-6 6v36a6.0006 6.0006 0 006 6h18a6.0006 6.0006 0 006-6v-36a6.0006 6.0006 0 00-6-6zm36 0a6.0006 6.0006 0 00-6 6v36a6 6 0 006 6 6 6 0 006-6v-30h6v30a6 6 0 006 6 6 6 0 006-6v-36a6.0006 6.0006 0 00-6-6zm36 0a6 6 0 00-6 6 6 6 0 006 6h12v6h-12a6.0006 6.0006 0 00-6 6v18a6.0006 6.0006 0 006 6h18a6.0006 6.0006 0 006-6v-36a6.0006 6.0006 0 00-6-6zm-204 12h6v24h-6zm102 0h6v24h-6zm36 0h6v24h-6zm72 18h6v6h-6z" fill="#3584e4" stop-color="#000000"/>
  <path d="m363 146a6 6 0 00-6 6 6 6 0 006 6 6 6 0 006-6 6 6 0 00-6-6z" fill="#f6d32d" stop-color="#000000"/>
  <path d="m160.9 134.31a6.0006 6.0006 0 00-7.8984 5.6924v18a6 6 0 00-6 6 6 6 0 006 6h6a6.0006 6.0006 0 006-6v-15.677l6 2.001v13.676a6 6 0 00-6 6 6 6 0 006 6h6a6.0006 6.0006 0 006-6v-24a6.0006 6.0006 0 00-4.1016-5.6924z" fill="#3584e4" stop-color="#000000"/>
  <path d="m202.9 122.31a6.0006 6.0006 0 00-7.8984 5.6924v18a6 6 0 00-6 6 6 6 0 006 6h6a6.0006 6.0006 0 006-6v-15.677l6 2.001v13.676a6 6 0 00-6 6 6 6 0 006 6h6a6.0006 6.0006 0 006-6v-24a6.0006 6.0006 0 00-4.1016-5.6924z" fill="#f6d32d" stop-color="#000000"/>
 </g>
</svg>
